<svg xmlns="http://www.w3.org/2000/svg" width="105" height="28" fill="none" viewBox="0 0 105 28"><path fill="#fff" d="M11.54 16.1C11.54 16.4467 11.52 16.8133 11.48 17.2H2.72C2.78667 18.28 3.15333 19.1267 3.82 19.74C4.5 20.34 5.32 20.64 6.28 20.64C7.06667 20.64 7.72 20.46 8.24 20.1C8.77333 19.7267 9.14667 19.2333 9.36 18.62H11.32C11.0267 19.6733 10.44 20.5333 9.56 21.2C8.68 21.8533 7.58667 22.18 6.28 22.18C5.24 22.18 4.30667 21.9467 3.48 21.48C2.66667 21.0133 2.02667 20.3533 1.56 19.5C1.09333 18.6333 0.86 17.6333 0.86 16.5C0.86 15.3667 1.08667 14.3733 1.54 13.52C1.99333 12.6667 2.62667 12.0133 3.44 11.56C4.26667 11.0933 5.21333 10.86 6.28 10.86C7.32 10.86 8.24 11.0867 9.04 11.54C9.84 11.9933 10.4533 12.62 10.88 13.42C11.32 14.2067 11.54 15.1 11.54 16.1ZM9.66 15.72C9.66 15.0267 9.50667 14.4333 9.2 13.94C8.89333 13.4333 8.47333 13.0533 7.94 12.8C7.42 12.5333 6.84 12.4 6.2 12.4C5.28 12.4 4.49333 12.6933 3.84 13.28C3.2 13.8667 2.83333 14.68 2.74 15.72H9.66ZM18.3623 22.14C17.4423 22.14 16.6157 21.98 15.8823 21.66C15.1623 21.3267 14.5957 20.8733 14.1823 20.3C13.769 19.7133 13.5557 19.04 13.5423 18.28H15.4823C15.549 18.9333 15.8157 19.4867 16.2823 19.94C16.7623 20.38 17.4557 20.6 18.3623 20.6C19.229 20.6 19.909 20.3867 20.4023 19.96C20.909 19.52 21.1623 18.96 21.1623 18.28C21.1623 17.7467 21.0157 17.3133 20.7223 16.98C20.429 16.6467 20.0623 16.3933 19.6223 16.22C19.1823 16.0467 18.589 15.86 17.8423 15.66C16.9223 15.42 16.1823 15.18 15.6223 14.94C15.0757 14.7 14.6023 14.3267 14.2023 13.82C13.8157 13.3 13.6223 12.6067 13.6223 11.74C13.6223 10.98 13.8157 10.3067 14.2023 9.72C14.589 9.13333 15.129 8.68 15.8223 8.36C16.529 8.04 17.3357 7.88 18.2423 7.88C19.549 7.88 20.6157 8.20667 21.4423 8.86C22.2823 9.51333 22.7557 10.38 22.8623 11.46H20.8623C20.7957 10.9267 20.5157 10.46 20.0223 10.06C19.529 9.64667 18.8757 9.44 18.0623 9.44C17.3023 9.44 16.6823 9.64 16.2023 10.04C15.7223 10.4267 15.4823 10.9733 15.4823 11.68C15.4823 12.1867 15.6223 12.6 15.9023 12.92C16.1957 13.24 16.549 13.4867 16.9623 13.66C17.389 13.82 17.9823 14.0067 18.7423 14.22C19.6623 14.4733 20.4023 14.7267 20.9623 14.98C21.5223 15.22 22.0023 15.6 22.4023 16.12C22.8023 16.6267 23.0023 17.32 23.0023 18.2C23.0023 18.88 22.8223 19.52 22.4623 20.12C22.1023 20.72 21.569 21.2067 20.8623 21.58C20.1557 21.9533 19.3223 22.14 18.3623 22.14ZM25.0006 16.48C25.0006 15.36 25.2273 14.38 25.6806 13.54C26.134 12.6867 26.754 12.0267 27.5406 11.56C28.3406 11.0933 29.2273 10.86 30.2006 10.86C31.1606 10.86 31.994 11.0667 32.7006 11.48C33.4073 11.8933 33.934 12.4133 34.2806 13.04V11.04H36.1206V22H34.2806V19.96C33.9206 20.6 33.3806 21.1333 32.6606 21.56C31.954 21.9733 31.1273 22.18 30.1806 22.18C29.2073 22.18 28.3273 21.94 27.5406 21.46C26.754 20.98 26.134 20.3067 25.6806 19.44C25.2273 18.5733 25.0006 17.5867 25.0006 16.48ZM34.2806 16.5C34.2806 15.6733 34.114 14.9533 33.7806 14.34C33.4473 13.7267 32.994 13.26 32.4206 12.94C31.8606 12.6067 31.2406 12.44 30.5606 12.44C29.8806 12.44 29.2606 12.6 28.7006 12.92C28.1406 13.24 27.694 13.7067 27.3606 14.32C27.0273 14.9333 26.8606 15.6533 26.8606 16.48C26.8606 17.32 27.0273 18.0533 27.3606 18.68C27.694 19.2933 28.1406 19.7667 28.7006 20.1C29.2606 20.42 29.8806 20.58 30.5606 20.58C31.2406 20.58 31.8606 20.42 32.4206 20.1C32.994 19.7667 33.4473 19.2933 33.7806 18.68C34.114 18.0533 34.2806 17.3267 34.2806 16.5ZM52.3763 10.84C53.2296 10.84 53.9896 11.02 54.6563 11.38C55.3229 11.7267 55.8496 12.2533 56.2363 12.96C56.6229 13.6667 56.8163 14.5267 56.8163 15.54V22H55.0163V15.8C55.0163 14.7067 54.7429 13.8733 54.1963 13.3C53.6629 12.7133 52.9363 12.42 52.0163 12.42C51.0696 12.42 50.3163 12.7267 49.7563 13.34C49.1963 13.94 48.9163 14.8133 48.9163 15.96V22H47.1163V15.8C47.1163 14.7067 46.8429 13.8733 46.2963 13.3C45.7629 12.7133 45.0363 12.42 44.1163 12.42C43.1696 12.42 42.4163 12.7267 41.8563 13.34C41.2963 13.94 41.0163 14.8133 41.0163 15.96V22H39.1963V11.04H41.0163V12.62C41.3763 12.0467 41.8563 11.6067 42.4563 11.3C43.0696 10.9933 43.7429 10.84 44.4763 10.84C45.3963 10.84 46.2096 11.0467 46.9163 11.46C47.6229 11.8733 48.1496 12.48 48.4963 13.28C48.8029 12.5067 49.3096 11.9067 50.0163 11.48C50.7229 11.0533 51.5096 10.84 52.3763 10.84ZM59.1217 16.48C59.1217 15.36 59.3484 14.38 59.8017 13.54C60.2551 12.6867 60.8751 12.0267 61.6617 11.56C62.4617 11.0933 63.3484 10.86 64.3217 10.86C65.2817 10.86 66.1151 11.0667 66.8217 11.48C67.5284 11.8933 68.0551 12.4133 68.4017 13.04V11.04H70.2417V22H68.4017V19.96C68.0417 20.6 67.5017 21.1333 66.7817 21.56C66.0751 21.9733 65.2484 22.18 64.3017 22.18C63.3284 22.18 62.4484 21.94 61.6617 21.46C60.8751 20.98 60.2551 20.3067 59.8017 19.44C59.3484 18.5733 59.1217 17.5867 59.1217 16.48ZM68.4017 16.5C68.4017 15.6733 68.2351 14.9533 67.9017 14.34C67.5684 13.7267 67.1151 13.26 66.5417 12.94C65.9817 12.6067 65.3617 12.44 64.6817 12.44C64.0017 12.44 63.3817 12.6 62.8217 12.92C62.2617 13.24 61.8151 13.7067 61.4817 14.32C61.1484 14.9333 60.9817 15.6533 60.9817 16.48C60.9817 17.32 61.1484 18.0533 61.4817 18.68C61.8151 19.2933 62.2617 19.7667 62.8217 20.1C63.3817 20.42 64.0017 20.58 64.6817 20.58C65.3617 20.58 65.9817 20.42 66.5417 20.1C67.1151 19.7667 67.5684 19.2933 67.9017 18.68C68.2351 18.0533 68.4017 17.3267 68.4017 16.5ZM77.8373 10.86C78.784 10.86 79.6107 11.0667 80.3173 11.48C81.0373 11.8933 81.5707 12.4133 81.9173 13.04V11.04H83.7573V22.24C83.7573 23.24 83.544 24.1267 83.1173 24.9C82.6907 25.6867 82.0773 26.3 81.2773 26.74C80.4907 27.18 79.5707 27.4 78.5173 27.4C77.0773 27.4 75.8773 27.06 74.9173 26.38C73.9573 25.7 73.3907 24.7733 73.2173 23.6H75.0173C75.2173 24.2667 75.6307 24.8 76.2573 25.2C76.884 25.6133 77.6373 25.82 78.5173 25.82C79.5173 25.82 80.3307 25.5067 80.9573 24.88C81.5973 24.2533 81.9173 23.3733 81.9173 22.24V19.94C81.5573 20.58 81.024 21.1133 80.3173 21.54C79.6107 21.9667 78.784 22.18 77.8373 22.18C76.864 22.18 75.9773 21.94 75.1773 21.46C74.3907 20.98 73.7707 20.3067 73.3173 19.44C72.864 18.5733 72.6373 17.5867 72.6373 16.48C72.6373 15.36 72.864 14.38 73.3173 13.54C73.7707 12.6867 74.3907 12.0267 75.1773 11.56C75.9773 11.0933 76.864 10.86 77.8373 10.86ZM81.9173 16.5C81.9173 15.6733 81.7507 14.9533 81.4173 14.34C81.084 13.7267 80.6307 13.26 80.0573 12.94C79.4973 12.6067 78.8773 12.44 78.1973 12.44C77.5173 12.44 76.8973 12.6 76.3373 12.92C75.7773 13.24 75.3307 13.7067 74.9973 14.32C74.664 14.9333 74.4973 15.6533 74.4973 16.48C74.4973 17.32 74.664 18.0533 74.9973 18.68C75.3307 19.2933 75.7773 19.7667 76.3373 20.1C76.8973 20.42 77.5173 20.58 78.1973 20.58C78.8773 20.58 79.4973 20.42 80.0573 20.1C80.6307 19.7667 81.084 19.2933 81.4173 18.68C81.7507 18.0533 81.9173 17.3267 81.9173 16.5ZM88.653 12.82C88.973 12.1933 89.4263 11.7067 90.013 11.36C90.613 11.0133 91.3396 10.84 92.193 10.84V12.72H91.713C89.673 12.72 88.653 13.8267 88.653 16.04V22H86.833V11.04H88.653V12.82ZM95.2339 9.26C94.8872 9.26 94.5939 9.14 94.3539 8.9C94.1139 8.66 93.9939 8.36667 93.9939 8.02C93.9939 7.67333 94.1139 7.38 94.3539 7.14C94.5939 6.9 94.8872 6.78 95.2339 6.78C95.5672 6.78 95.8472 6.9 96.0739 7.14C96.3139 7.38 96.4339 7.67333 96.4339 8.02C96.4339 8.36667 96.3139 8.66 96.0739 8.9C95.8472 9.14 95.5672 9.26 95.2339 9.26ZM96.1139 11.04V22H94.2939V11.04H96.1139Z"/><line x1="17" x2="63" y1="26.5" y2="26.5" stroke="#fff"/></svg>